# xmcd CD database file
#
# Track frame offsets:
#	150
#	21487
#	53294
#	93306
#	118448
#	146662
#	182477
#
# Disc length: 2861 seconds
#
# Revision: 0
# Processed by: cddbd v1.4PL0 Copyright (c) Steve Scherf et al.
# Submitted via: CDex 1.50
#
DISCID=5b0b2b07
DTITLE=Emmanuel Vaughan-lee - Previous Misconceptions
DYEAR=2001
DGENRE=Jazz
TTITLE0=Rather not
TTITLE1=Previous Misconceptions
TTITLE2=Simplicity
TTITLE3=Jacob
TTITLE4=Hesitation
TTITLE5=João
TTITLE6=Ask me now
EXTD=YEAR: 2001
EXTT0=
EXTT1=
EXTT2=
EXTT3=
EXTT4=
EXTT5=
EXTT6=
PLAYORDER=
